<svg id="Component_2_1" data-name="Component 2 – 1" xmlns="http://www.w3.org/2000/svg" width="341" height="341" viewBox="0 0 341 341">
  <defs>
    <style>
      .cls-1 {
        fill: #fff;
        stroke-width: 24px;
      }

      .cls-1, .cls-2 {
        stroke: #707070;
      }

      .cls-2, .cls-3 {
        fill: #707070;
      }

      .cls-4, .cls-6 {
        stroke: none;
      }

      .cls-5 {
        fill: none;
      }

      .cls-6 {
        fill: #707070;
      }
    </style>
  </defs>
  <g id="Ellipse_3" data-name="Ellipse 3" class="cls-1">
    <circle class="cls-4" cx="170.5" cy="170.5" r="170.5"/>
    <circle class="cls-5" cx="170.5" cy="170.5" r="158.5"/>
  </g>
  <g id="Ellipse_1" data-name="Ellipse 1" class="cls-2" transform="translate(109 53)">
    <ellipse class="cls-4" cx="59.5" cy="66.5" rx="59.5" ry="66.5"/>
    <ellipse class="cls-5" cx="59.5" cy="66.5" rx="59" ry="66"/>
  </g>
  <g id="Path_4" data-name="Path 4" class="cls-3" transform="translate(80.695 203.875)">
    <path class="cls-4" d="M 93.20005035400391 131.8326263427734 C 89.10948944091797 131.8326568603516 85.03001403808594 131.6789703369141 82.80711364746094 131.4410705566406 C 82.45320892333984 131.4030914306641 79.78026580810547 131.1803741455078 71.80795288085938 130.5245056152344 C 70.25479888916016 130.396728515625 69.02798461914062 130.2958221435547 68.8182373046875 130.2779083251953 C 62.25860977172852 129.7181854248047 57.57145690917969 129.0817260742188 53.62051773071289 128.2142181396484 C 50.00067520141602 127.4194107055664 47.14461135864258 126.4605331420898 43.52873611450195 125.2465667724609 C 42.28111267089844 124.8276901245117 40.99101638793945 124.3945617675781 39.54064178466797 123.9238128662109 C 38.81240081787109 123.6874923706055 38.31252670288086 123.525276184082 37.82812118530273 123.4375076293945 C 35.14328765869141 122.4641036987305 31.76467514038086 121.2196426391602 28.33954811096191 119.907096862793 C 24.62826728820801 118.4848785400391 21.52920532226562 117.2373809814453 19.12848663330078 116.19921875 C 15.77652454376221 114.749755859375 14.62809181213379 114.0697784423828 14.31177139282227 113.8629531860352 C 13.36331367492676 112.9058990478516 11.80973339080811 111.8928909301758 7.886798858642578 109.3350372314453 C 4.04133415222168 106.8277130126953 -1.720733523368835 103.0707015991211 -9.315631866455078 97.74254608154297 C -9.119724273681641 92.64742279052734 -8.404227256774902 87.49698638916016 -7.181325912475586 82.39275360107422 C -5.771388530731201 76.50788116455078 -3.674357414245605 70.6273193359375 -0.9485448002815247 64.91444396972656 C 1.71733021736145 59.32725143432617 4.999517917633057 53.86740875244141 8.806830406188965 48.68659591674805 C 12.56373691558838 43.57440948486328 16.84273719787598 38.71841049194336 21.52501678466797 34.25350189208984 C 26.19257926940918 29.80259704589844 31.2680492401123 25.73328399658203 36.61045455932617 22.15865898132324 C 41.99273681640625 18.55734634399414 47.65648651123047 15.45137786865234 53.44429779052734 12.92709636688232 C 59.33267211914062 10.35890960693359 65.37345886230469 8.383065223693848 71.39882659912109 7.054347038269043 C 77.58055114746094 5.691190719604492 83.79217529296875 5.000002861022949 89.8612060546875 5.000002861022949 C 95.90620422363281 5.000002861022949 102.0673904418945 5.714252948760986 108.1737060546875 7.122909069061279 C 114.1099548339844 8.49234676361084 120.0467376708984 10.52915954589844 125.8191146850586 13.17675304412842 C 131.4761352539062 15.77144050598145 137.0051422119141 18.96569061279297 142.2525482177734 22.67075347900391 C 147.4430847167969 26.33565902709961 152.3723907470703 30.51000213623047 156.9035797119141 35.07781600952148 C 161.4323272705078 39.64322280883789 165.5712738037109 44.60959625244141 169.2054290771484 49.83900451660156 C 172.8757019042969 55.12044143676758 176.0402069091797 60.68391036987305 178.6110229492188 66.37481689453125 C 181.2319793701172 72.1768798828125 183.2483673095703 78.14072418212891 184.6040802001953 84.10075378417969 C 185.8467559814453 89.56391143798828 186.5431365966797 95.06558990478516 186.6793060302734 100.4850006103516 C 186.020263671875 101.0659561157227 185.1074981689453 101.8040237426758 184.1012420654297 102.4553146362305 L 183.9318237304688 102.56494140625 L 183.7718353271484 102.6878433227539 C 181.4116363525391 104.5010986328125 177.2635803222656 106.820068359375 173.9305877685547 108.6833801269531 C 170.7385559082031 110.4679107666016 168.8750457763672 111.5218505859375 167.6942291259766 112.4318161010742 C 163.9983062744141 115.2806930541992 158.5814819335938 117.274284362793 152.8466186523438 119.3849411010742 C 151.2320556640625 119.9791564941406 149.5625457763672 120.5936279296875 147.8859558105469 121.2432250976562 C 142.9441070556641 123.1581268310547 137.5203857421875 124.7600936889648 131.9338684082031 126.3681259155273 C 128.0316772460938 127.4916305541992 123.1756439208984 128.8897857666016 117.3483276367188 129.5558776855469 C 115.8836135864258 129.7233428955078 114.3425521850586 129.9889678955078 112.7110214233398 130.2702484130859 C 110.2642364501953 130.6920318603516 107.4910202026367 131.1700897216797 104.3077697753906 131.4291229248047 C 101.0648651123047 131.6930694580078 97.22389221191406 131.8325958251953 93.20005035400391 131.8326263427734 Z"/>
    <path class="cls-6" d="M 89.86119079589844 10.00001525878906 C 44.16827392578125 10.00001525878906 -0.7117919921875 51.43538665771484 -4.158828735351562 95.24385070800781 C 2.258834838867188 99.69715118408203 7.1993408203125 102.9178466796875 10.61785888671875 105.1467971801758 C 14.31777954101562 107.5592422485352 16.09971618652344 108.7210922241211 17.36058044433594 109.8609924316406 C 19.90998840332031 111.2885437011719 28.79420471191406 114.8416442871094 39.18362426757812 118.6130676269531 C 39.82600402832031 118.7597427368164 40.43342590332031 118.9568557739258 41.08425903320312 119.1680450439453 L 45.12008666992188 120.5065460205078 C 52.15258026123047 122.8676223754883 56.02643585205078 124.1681900024414 69.24343872070312 125.296012878418 L 72.22654724121094 125.5420455932617 C 76.28850555419922 125.8762283325195 82.92490386962891 126.4250106811523 83.33929443359375 126.4694366455078 C 87.06475830078125 126.8682022094727 96.35338592529297 127.0599899291992 103.9022598266602 126.4455871582031 C 106.9673690795898 126.1961898803711 109.5832595825195 125.7356872558594 111.8615798950195 125.3429412841797 C 113.6573638916016 125.0333709716797 115.2862930297852 124.7590484619141 116.7804718017578 124.588264465332 C 122.1931915283203 123.9695129394531 126.826904296875 122.6354064941406 130.5507507324219 121.5632629394531 C 136.0245056152344 119.9876556396484 141.3309783935547 118.4209747314453 146.0795135498047 116.580940246582 L 151.1196136474609 114.6926574707031 C 156.4848022460938 112.7180862426758 161.5524444580078 110.8529739379883 164.6421813964844 108.4713287353516 C 165.8014068603516 107.5780487060547 168.4047546386719 106.0442657470703 171.4909057617188 104.318977355957 C 174.5139770507812 102.6289367675781 178.6541900634766 100.3143310546875 181.3843688964844 98.25787353515625 C 181.4483032226562 98.21649169921875 181.5118103027344 98.17455291748047 181.5750274658203 98.13204956054688 C 178.8931274414062 53.00707244873047 134.7803039550781 10.00001525878906 89.86119079589844 10.00001525878906 M 89.86119079589844 1.52587890625e-05 C 142.3162994384766 1.52587890625e-05 191.7040863037109 49.99933624267578 191.7040863037109 102.4544372558594 C 191.7040863037109 102.6854400634766 189.4582214355469 104.943977355957 186.8179779052734 106.6528701782227 C 182.2820739746094 110.1375503540039 173.0226898193359 114.637939453125 170.7462615966797 116.3922271728516 C 165.3093719482422 120.5830841064453 157.5357971191406 122.8664779663086 149.6923980712891 125.9054794311523 C 144.7534027099609 127.8193359375 139.5574340820312 129.3767242431641 133.3169403076172 131.1730499267578 C 128.8881530761719 132.4481506347656 123.9585113525391 133.8328399658203 117.9161834716797 134.5235443115234 C 114.4861526489258 134.9156494140625 110.2595443725586 135.9613342285156 104.7133331298828 136.4126586914062 C 96.46031951904297 137.0843658447266 86.34819030761719 136.8485870361328 82.27504730224609 136.4126586914062 C 81.70379638671875 136.3514099121094 69.15029144287109 135.3244018554688 68.3931884765625 135.2597961425781 C 51.61757659912109 133.8283386230469 48.12232971191406 131.9660186767578 37.99700927734375 128.6795501708984 C 34.03488159179688 127.3938217163086 42.49446105957031 130.4036407470703 42.47843933105469 130.4036407470703 C 42.47517395019531 130.4036407470703 42.11764526367188 130.2780303955078 41.227294921875 129.9641571044922 C 38.01736450195312 128.8332977294922 13.05804443359375 119.984619140625 10.82379150390625 117.4501190185547 C 9.763870239257812 116.2481231689453 1.753189086914062 111.6433334350586 -12.78509521484375 101.4156951904297 C -13.15682983398438 101.1131134033203 -13.63296508789062 101.4151153564453 -13.96607971191406 101.4151153564453 C -14.20542907714844 101.4151153564453 -14.37095642089844 101.2592620849609 -14.37095642089844 100.6112976074219 C -14.37095642089844 48.15618896484375 37.40608215332031 1.52587890625e-05 89.86119079589844 1.52587890625e-05 Z"/>
  </g>
</svg>
