<svg id="Component_1_1" data-name="Component 1 – 1" xmlns="http://www.w3.org/2000/svg" width="314" height="341.165" viewBox="0 0 314 341.165">
  <defs>
    <style>
      .cls-1, .cls-2 {
        fill: #fff;
      }

      .cls-2 {
        stroke: #707070;
        stroke-width: 20px;
      }

      .cls-3, .cls-4 {
        stroke: none;
      }

      .cls-4 {
        fill: #707070;
      }

      .cls-5 {
        fill: none;
      }
    </style>
  </defs>
  <g id="Path_1" data-name="Path 1" class="cls-1" transform="translate(79.65)">
    <path class="cls-3" d="M 104.9639739990234 111.1649856567383 C 100.8698272705078 111.1650772094727 96.60736083984375 111.0842208862305 92.21050262451172 111.0014877319336 C 87.39950561523438 110.9109878540039 82.43194580078125 110.8180770874023 77.3499755859375 110.8180770874023 C 72.26835632324219 110.8180770874023 67.29933166503906 110.9109878540039 62.4868278503418 111.0014877319336 C 58.09038925170898 111.0841979980469 53.82823944091797 111.1649856567383 49.73579788208008 111.1649856567383 C 19.92147636413574 111.1649856567383 10.00000476837158 106.9700469970703 10.00000476837158 82.14157867431641 C 10.00000476837158 42.36257553100586 40.21306228637695 10.00001811981201 77.3499755859375 10.00001811981201 C 114.4868850708008 10.00001811981201 144.699951171875 42.36257553100586 144.699951171875 82.14157867431641 C 144.699951171875 106.9694900512695 134.7784423828125 111.1644897460938 104.9639739990234 111.1649856567383 Z"/>
    <path class="cls-4" d="M 77.3499755859375 20.00000762939453 C 45.72708892822266 20.00000762939453 20.00001525878906 47.8765869140625 20.00001525878906 82.14154815673828 C 20.00001525878906 97.13516235351562 20.00001525878906 101.1649703979492 49.73578643798828 101.1649703979492 C 53.76786041259766 101.1649703979492 57.96713256835938 101.0847015380859 62.29874420166016 101.0032424926758 C 67.17212677001953 100.9115905761719 72.20405578613281 100.8180465698242 77.3499755859375 100.8180465698242 C 82.49732208251953 100.8180465698242 87.52878570556641 100.9115905761719 92.40159606933594 101.0032424926758 C 96.73262786865234 101.0847015380859 100.9312438964844 101.1649703979492 104.9641723632812 101.1649703979492 C 134.6999359130859 101.1649703979492 134.6999359130859 97.13516235351562 134.6999359130859 82.14154815673828 C 134.6999359130859 47.8765869140625 108.9728546142578 20.00000762939453 77.3499755859375 20.00000762939453 M 77.3499755859375 7.62939453125e-06 C 120.0691680908203 7.62939453125e-06 154.6999359130859 36.77604675292969 154.6999359130859 82.14154815673828 C 154.6999359130859 127.507080078125 120.0691680908203 120.8180465698242 77.3499755859375 120.8180465698242 C 34.63078308105469 120.8180465698242 1.52587890625e-05 127.5070877075195 1.52587890625e-05 82.14154815673828 C 1.52587890625e-05 36.77604675292969 34.63078308105469 7.62939453125e-06 77.3499755859375 7.62939453125e-06 Z"/>
  </g>
  <g id="Rectangle_1" data-name="Rectangle 1" class="cls-2" transform="translate(0 86.165)">
    <rect class="cls-3" width="314" height="255" rx="24"/>
    <rect class="cls-5" x="10" y="10" width="294" height="235" rx="14"/>
  </g>
</svg>
